# xmcd
# Track frame offsets:
# 150
# 10134
# 20276
# 32554
# 44522
# 55659
# 63977
# 73256
# 82753
# 93752
# 108014
# 117424
# 127593
# 139508
#
# Disc length: 2015 seconds
# Revision: 0
# Processed by: cddbd v1.5.2PL0 Copyright (c) Steve Scherf et al.
# Submitted via: VisiTrax 2.10.3.257 - For more info visit www.synapsa.com
#
DISCID=a207dd0e
DTITLE=Conway Twitty - Greatest Hits
DYEAR=2007
DGENRE=
TTITLE0=It's Only Make Believe
TTITLE1=I'll Try
TTITLE2=Danny Boy
TTITLE3=Shake It Up Baby
TTITLE4=Angel's Wings
TTITLE5=Blue Is The Way I Feel When You're Gone
TTITLE6=Don't Go Too Far
TTITLE7=Ever Since You Went Away
TTITLE8=Have I Been Away Too Long?
TTITLE9=I Need Your Lovin
TTITLE10=I Wonder If You Told Her (About Me)
TTITLE11=Lonely Blue Boy
TTITLE12=You Made Me What I Am
TTITLE13=What Am I Living For?
EXTD=
EXTT0=
EXTT1=
EXTT2=
EXTT3=
EXTT4=
EXTT5=
EXTT6=
EXTT7=
EXTT8=
EXTT9=
EXTT10=
EXTT11=
EXTT12=
EXTT13=
PLAYORDER=
